# xmcd
#
# Track frame offsets:
#	150
#	50046
#	58492
#
# Disc length: 1300 seconds
#
# Revision: 1
# Processed by: cddbd v1.5.2PL0 Copyright (c) Steve Scherf et al.
# Submitted via: audiograbber 1.83.01
#
DISCID=2c051203
DTITLE=Grateful Dead - 78-01-18 Stockton Civic Auditorium, Stockton CA
DYEAR=1900
DGENRE=
TTITLE0=Sugar Magnolia
TTITLE1=Tuning
TTITLE2=Around and Around
EXTD=
EXTT0=
EXTT1=
EXTT2=
PLAYORDER=
